<svg xmlns="http://www.w3.org/2000/svg" xmlns:xlink="http://www.w3.org/1999/xlink" version="1.1" x="0px" y="0px" viewBox="0 0 100 125" style="enable-background:new 0 0 100 100;" xml:space="preserve"><g><path d="M45,67.38h10c2.75,0,5-2.25,5-5v-20c0-2.75-2.25-5-5-5H45c-2.75,0-5,2.25-5,5v20C40,65.13,42.25,67.38,45,67.38z M44,42.38   c0-0.54,0.46-1,1-1h10c0.54,0,1,0.46,1,1v20c0,0.54-0.46,1-1,1H45c-0.54,0-1-0.46-1-1V42.38z"/><path d="M52.5,32.63h-5c-1.66,0-3,1.34-3,3h11C55.5,33.97,54.15,32.63,52.5,32.63z"/></g><text x="0" y="115" fill="#000000" font-size="5px" font-weight="bold" font-family="'Helvetica Neue', Helvetica, Arial-Unicode, Arial, Sans-serif">Created by Boccy0</text><text x="0" y="120" fill="#000000" font-size="5px" font-weight="bold" font-family="'Helvetica Neue', Helvetica, Arial-Unicode, Arial, Sans-serif">from the Noun Project</text></svg>