<svg xmlns="http://www.w3.org/2000/svg" data-name="Layer 1" viewBox="0 0 100 125" x="0px" y="0px"><title>Artboard 28</title><path d="M71,74H50a4,4,0,0,0-4,4h0a4,4,0,0,0,4,4H71A10,10,0,0,0,81,72V35A10,10,0,0,0,71,25H66V22a4,4,0,0,0-4-4H58a4,4,0,0,0-4,4v3H49A10,10,0,0,0,39,35V49a4,4,0,0,0,4.39,4A4.12,4.12,0,0,0,47,48.83V35a2,2,0,0,1,2-2H71a2,2,0,0,1,2,2V72A2,2,0,0,1,71,74Z"/><path d="M30.34,81.64a4,4,0,0,0,5.3-2L40.49,69a5.64,5.64,0,0,0-5.14-8H28.3l3.34-7.34a4,4,0,1,0-7.28-3.31L19.51,61a5.64,5.64,0,0,0,5.14,8H31.7l-3.34,7.34A4,4,0,0,0,30.34,81.64Z"/><text x="0" y="115" fill="#000000" font-size="5px" font-weight="bold" font-family="'Helvetica Neue', Helvetica, Arial-Unicode, Arial, Sans-serif">Created by Gregor Cresnar</text><text x="0" y="120" fill="#000000" font-size="5px" font-weight="bold" font-family="'Helvetica Neue', Helvetica, Arial-Unicode, Arial, Sans-serif">from the Noun Project</text></svg>