<svg xmlns="http://www.w3.org/2000/svg" xmlns:xlink="http://www.w3.org/1999/xlink" version="1.1" x="0px" y="0px" viewBox="0 0 100 125" style="enable-background:new 0 0 100 100;" xml:space="preserve"><g><path d="M45,67.38h10c2.75,0,5-2.27,5-5v-20c0-2.77-2.25-5-5-5H45c-2.75,0-5,2.23-5,5v20C40,65.11,42.25,67.38,45,67.38z M44,42.38   c0-0.18,0.05-0.35,0.14-0.5c0.17-0.3,0.5-0.5,0.86-0.5h10c0.54,0,1,0.45,1,1v20c0,0.53-0.46,1-1,1H45c-0.54,0-1-0.47-1-1V42.38z"/><path d="M54.5,44.38c0-0.84-0.67-1.5-1.5-1.5h-6c-0.28,0-0.54,0.07-0.76,0.21l8.26,4.77V44.38z"/><polygon points="54.5,49.59 45.5,44.39 45.5,48.92 54.5,54.11  "/><polygon points="54.5,55.83 45.5,50.64 45.5,55.05 54.5,60.25  "/><path d="M47,61.88h6c0.32,0,0.61-0.1,0.85-0.27l-8.35-4.82v3.59C45.5,61.21,46.17,61.88,47,61.88z"/><path d="M52.5,32.62h-5c-1.66,0-3,1.34-3,3h11C55.5,33.96,54.15,32.62,52.5,32.62z"/></g><text x="0" y="115" fill="#000000" font-size="5px" font-weight="bold" font-family="'Helvetica Neue', Helvetica, Arial-Unicode, Arial, Sans-serif">Created by Boccy0</text><text x="0" y="120" fill="#000000" font-size="5px" font-weight="bold" font-family="'Helvetica Neue', Helvetica, Arial-Unicode, Arial, Sans-serif">from the Noun Project</text></svg>