<svg xmlns="http://www.w3.org/2000/svg" xmlns:xlink="http://www.w3.org/1999/xlink" version="1.1" x="0px" y="0px" viewBox="0 0 100 125" style="enable-background:new 0 0 100 100;" xml:space="preserve"><g><path d="M42.76,71.5h10c2.75,0,5-2.25,5-5v-20c0-2.75-2.25-5-5-5h-10c-2.75,0-5,2.25-5,5v20C37.76,69.25,40.01,71.5,42.76,71.5z    M41.76,46.5c0-0.54,0.46-1,1-1h10c0.54,0,1,0.46,1,1v20c0,0.54-0.46,1-1,1h-10c-0.54,0-1-0.46-1-1V46.5z"/><path d="M50.26,36.75h-5c-1.66,0-3,1.34-3,3h11C53.26,38.09,51.91,36.75,50.26,36.75z"/><path d="M46.26,57.95c0.11,0,0.21-0.02,0.32-0.07l0.84-0.39l0.31-0.14l0.09-0.04l-0.03,0.07l-1.5,3.55l-0.03,0.08l0.05-0.07   l2.32-3.07l1.13-1.5l0.12-0.14l0.03-0.05c0.11-0.2,0.13-0.46,0.03-0.69c-0.17-0.37-0.63-0.54-1-0.36l-0.84,0.39l-0.4,0.18   l1.56-3.69l-3.27,4.33l-0.23,0.3l-0.12,0.14l-0.03,0.05c-0.11,0.21-0.13,0.46-0.03,0.69C45.71,57.79,45.98,57.95,46.26,57.95z"/></g><text x="0" y="115" fill="#000000" font-size="5px" font-weight="bold" font-family="'Helvetica Neue', Helvetica, Arial-Unicode, Arial, Sans-serif">Created by Boccy0</text><text x="0" y="120" fill="#000000" font-size="5px" font-weight="bold" font-family="'Helvetica Neue', Helvetica, Arial-Unicode, Arial, Sans-serif">from the Noun Project</text></svg>