<svg xmlns="http://www.w3.org/2000/svg" data-name="Layer 1" viewBox="0 0 100 125" x="0px" y="0px"><title>Artboard 70</title><path d="M78,46H71.63a21.88,21.88,0,0,0-3.51-8.46l4.35-4.35a4.15,4.15,0,0,0,.31-5.66,4,4,0,0,0-5.8-.16l-4.51,4.51A21.88,21.88,0,0,0,54,28.37V22a4,4,0,0,0-4-4h0a4,4,0,0,0-4,4v6.37a21.88,21.88,0,0,0-8.46,3.51l-4.35-4.35a4.15,4.15,0,0,0-5.66-.31,4,4,0,0,0-.16,5.8L34,39.7A4.4,4.4,0,0,0,37.13,41h.29a4.56,4.56,0,0,0,3.09-1.27A14,14,0,1,1,50,64h0a4,4,0,0,0-4,4V78a4,4,0,0,0,4,4h0a4,4,0,0,0,4-4V71.63a21.88,21.88,0,0,0,8.46-3.51l4.35,4.35a4.15,4.15,0,0,0,5.66.31,4,4,0,0,0,.16-5.8l-4.51-4.51A21.88,21.88,0,0,0,71.63,54H78a4,4,0,0,0,4-4h0A4,4,0,0,0,78,46Z"/><path d="M28.66,44.36a4,4,0,0,0-5.3,2L18.51,57a5.64,5.64,0,0,0,5.14,8H30.7l-3.34,7.34a4,4,0,1,0,7.28,3.31L39.49,65a5.64,5.64,0,0,0-5.14-8H27.3l3.34-7.34A4,4,0,0,0,28.66,44.36Z"/><text x="0" y="115" fill="#000000" font-size="5px" font-weight="bold" font-family="'Helvetica Neue', Helvetica, Arial-Unicode, Arial, Sans-serif">Created by Gregor Cresnar</text><text x="0" y="120" fill="#000000" font-size="5px" font-weight="bold" font-family="'Helvetica Neue', Helvetica, Arial-Unicode, Arial, Sans-serif">from the Noun Project</text></svg>