<svg xmlns="http://www.w3.org/2000/svg" xmlns:xlink="http://www.w3.org/1999/xlink" version="1.1" x="0px" y="0px" viewBox="0 0 100 125" style="enable-background:new 0 0 100 100;" xml:space="preserve"><g><path d="M45,67.38h10c2.75,0,5-2.27,5-5v-20c0-2.77-2.25-5-5-5H45c-2.75,0-5,2.23-5,5v20C40,65.11,42.25,67.38,45,67.38z M44,42.38   c0-0.18,0.05-0.35,0.14-0.5c0.17-0.3,0.5-0.5,0.86-0.5h10c0.54,0,1,0.45,1,1v20c0,0.53-0.46,1-1,1H45c-0.54,0-1-0.47-1-1V42.38z"/><path d="M54.5,44.38c0-0.84-0.67-1.5-1.5-1.5h-6c-0.28,0-0.54,0.07-0.76,0.21l8.26,4.77V44.38z"/><polygon points="50.19,47.1 45.5,44.39 45.5,48.92 47.81,50.25  "/><path d="M52.39,49.61c0.51,0.22,0.92,0.63,1.15,1.12c0.29,0.66,0.26,1.42-0.08,2.03c-0.01,0.03-0.05,0.1-0.06,0.12   c-0.03,0.04-0.06,0.07-0.09,0.12l-0.22,0.29l1.41,0.82v-4.52l-1.69-0.98L52.39,49.61z"/><path d="M47.61,55.13c-0.49-0.21-0.9-0.59-1.14-1.09c-0.31-0.69-0.28-1.41,0.05-2.04c0.01-0.02,0.06-0.11,0.08-0.13   c0.02-0.04,0.05-0.1,0.08-0.13l0.22-0.29l-1.4-0.81v4.41l1.73,1L47.61,55.13z"/><polygon points="49.85,57.56 54.5,60.25 54.5,55.83 52.18,54.49  "/><path d="M47,61.88h6c0.32,0,0.61-0.1,0.85-0.27l-5.65-3.26c-0.16-0.03-0.31-0.09-0.45-0.17s-0.26-0.18-0.36-0.3l-1.89-1.09v3.59   C45.5,61.21,46.17,61.88,47,61.88z"/><path d="M52.5,32.62h-5c-1.66,0-3,1.34-3,3h11C55.5,33.96,54.15,32.62,52.5,32.62z"/><path d="M52.12,52.1l0.03-0.05c0.11-0.2,0.13-0.46,0.03-0.69c-0.17-0.37-0.63-0.54-1-0.36l-1.24,0.57l1.56-3.69l-3.62,4.77   l-0.03,0.05c-0.11,0.21-0.13,0.46-0.03,0.69c0.13,0.27,0.4,0.43,0.68,0.43c0.11,0,0.21-0.02,0.32-0.07l1.24-0.57l-1.56,3.7   L52.12,52.1z"/></g><text x="0" y="115" fill="#000000" font-size="5px" font-weight="bold" font-family="'Helvetica Neue', Helvetica, Arial-Unicode, Arial, Sans-serif">Created by Boccy0</text><text x="0" y="120" fill="#000000" font-size="5px" font-weight="bold" font-family="'Helvetica Neue', Helvetica, Arial-Unicode, Arial, Sans-serif">from the Noun Project</text></svg>