<?xml version="1.0" encoding="UTF-8" standalone="no"?>
<!DOCTYPE svg PUBLIC "-//W3C//DTD SVG 1.1//EN" "http://www.w3.org/Graphics/SVG/1.1/DTD/svg11.dtd">
<svg width="100%" height="100%" viewBox="0 0 20 35" version="1.1" xmlns="http://www.w3.org/2000/svg" xmlns:xlink="http://www.w3.org/1999/xlink" xml:space="preserve" xmlns:serif="http://www.serif.com/" style="fill-rule:evenodd;clip-rule:evenodd;stroke-linejoin:round;stroke-miterlimit:2;">
    <g transform="matrix(1,0,0,1,-40,-32.62)">
        <path d="M55,37.38L45,37.38C42.25,37.38 40,39.61 40,42.38L40,62.38C40,65.11 42.25,67.38 45,67.38L55,67.38C57.75,67.38 60,65.11 60,62.38L60,42.38C60,39.61 57.75,37.38 55,37.38ZM56,62.38C56,62.91 55.54,63.38 55,63.38L45,63.38C44.46,63.38 44,62.91 44,62.38L44,42.38C44,42.2 44.05,42.03 44.14,41.88C44.31,41.58 44.64,41.38 45,41.38L55,41.38C55.54,41.38 56,41.83 56,42.38L56,62.38Z" style="fill-rule:nonzero;"/>
        <path d="M47.61,55.13C47.12,54.92 46.71,54.54 46.47,54.04C46.16,53.35 46.19,52.63 46.52,52C46.53,51.98 46.58,51.89 46.6,51.87C46.62,51.83 46.65,51.77 46.68,51.74L46.9,51.45L45.5,50.64L45.5,55.05L47.23,56.05L47.61,55.13Z" style="fill-rule:nonzero;"/>
        <path d="M49.85,57.56L54.5,60.25L54.5,55.83L52.18,54.49L49.85,57.56Z" style="fill-rule:nonzero;"/>
        <path d="M45.5,60.38C45.5,61.21 46.17,61.88 47,61.88L53,61.88C53.32,61.88 53.61,61.78 53.85,61.61L45.5,56.79L45.5,60.38Z" style="fill-rule:nonzero;"/>
        <path d="M52.5,32.62L47.5,32.62C45.84,32.62 44.5,33.96 44.5,35.62L55.5,35.62C55.5,33.96 54.15,32.62 52.5,32.62Z" style="fill-rule:nonzero;"/>
        <path d="M48.5,53.82C48.61,53.82 48.71,53.8 48.82,53.75L50.06,53.18L48.5,56.88L52.12,52.1L52.15,52.05C52.26,51.85 52.28,51.59 52.18,51.36C52.01,50.99 51.55,50.82 51.18,51L49.94,51.57L51.5,47.88L47.88,52.65L47.85,52.7C47.74,52.91 47.72,53.16 47.82,53.39C47.95,53.66 48.22,53.82 48.5,53.82Z" style="fill-rule:nonzero;"/>
    </g>
</svg>
