<svg xmlns="http://www.w3.org/2000/svg" data-name="Layer 1" viewBox="0 0 100 125" x="0px" y="0px"><path d="M35.27,49.8l-4.71-2.36-2.35-4.7a1.34,1.34,0,0,0-2.4,0l-2.35,4.7L18.75,49.8a1.33,1.33,0,0,0,0,2.39l4.71,2.36,2.35,4.7a1.34,1.34,0,0,0,2.4,0l2.35-4.7,4.71-2.36A1.33,1.33,0,0,0,35.27,49.8Z"/><path d="M45.53,66.21l-3.14-1.57L40.82,61.5a.89.89,0,0,0-1.6,0l-1.57,3.14-3.13,1.57a.89.89,0,0,0,0,1.59l3.13,1.57,1.57,3.14a.89.89,0,0,0,1.6,0l1.57-3.14,3.14-1.57A.89.89,0,0,0,45.53,66.21Z"/><path d="M77.92,36.82a9.38,9.38,0,0,0-1.71-16.39A31.91,31.91,0,0,0,35.67,35.16,4,4,0,0,0,39.25,41a4.08,4.08,0,0,0,3.57-2.19,23.89,23.89,0,0,1,30.33-11A1.34,1.34,0,0,1,74,29.1a1.41,1.41,0,0,1-.61,1.14,24,24,0,0,0,0,39.52A1.41,1.41,0,0,1,74,70.91a1.34,1.34,0,0,1-.84,1.27,24,24,0,0,1-17.52.31,4.16,4.16,0,0,0-5.27,2,4,4,0,0,0,2.2,5.4,31.93,31.93,0,0,0,23.66-.31,9.38,9.38,0,0,0,1.7-16.39,16,16,0,0,1,0-26.36Z"/><text x="0" y="115" fill="#000000" font-size="5px" font-weight="bold" font-family="'Helvetica Neue', Helvetica, Arial-Unicode, Arial, Sans-serif">Created by Gregor Cresnar</text><text x="0" y="120" fill="#000000" font-size="5px" font-weight="bold" font-family="'Helvetica Neue', Helvetica, Arial-Unicode, Arial, Sans-serif">from the Noun Project</text></svg>