<?xml version="1.0" encoding="UTF-8" standalone="no"?>
<!DOCTYPE svg PUBLIC "-//W3C//DTD SVG 1.1//EN" "http://www.w3.org/Graphics/SVG/1.1/DTD/svg11.dtd">
<svg width="100%" height="100%" viewBox="0 0 65 64" version="1.1" xmlns="http://www.w3.org/2000/svg" xmlns:xlink="http://www.w3.org/1999/xlink" xml:space="preserve" xmlns:serif="http://www.serif.com/" style="fill-rule:evenodd;clip-rule:evenodd;stroke-linejoin:round;stroke-miterlimit:2;">
    <g transform="matrix(1,0,0,1,-18,-18.0099)">
        <path d="M18,66C18,74.777 25.223,82 34,82L66,82C66.008,82 66.016,82 66.024,82C74.801,82 82.024,74.777 82.024,66C82.024,58.097 76.169,51.319 68.35,50.17C66.347,45.463 62.612,41.699 57.92,39.66C57.92,39.11 58,38.56 58,38C57.995,27.032 48.968,18.01 38,18.01C27.028,18.01 18,27.038 18,38.01C18,43.742 20.464,49.206 24.76,53C20.542,55.984 18.02,60.833 18,66ZM61.56,55C62.014,56.759 63.613,57.999 65.43,58L65.71,58C69.974,57.931 73.615,61.203 74,65.45C74.013,65.633 74.019,65.817 74.019,66C74.019,70.389 70.408,74 66.019,74C66.013,74 66.006,74 66,74L34.28,74C30.02,74.064 26.385,70.793 26,66.55C25.987,66.367 25.981,66.183 25.981,66C25.981,61.611 29.592,58 33.981,58C33.987,58 33.994,58 34,58L34.57,58C36.387,57.999 37.986,56.759 38.44,55C39.776,49.723 44.562,45.998 50.005,45.998C55.448,45.998 60.234,49.723 61.57,55L61.56,55ZM38,26C44.583,26 50,31.417 50,38C42.638,38.01 35.858,42.096 32.41,48.6C28.493,46.521 26.035,42.434 26.035,38C26.035,31.43 31.43,26.019 38,26Z" style="fill-rule:nonzero;"/>
    </g>
</svg>
