<?xml version="1.0" encoding="UTF-8" standalone="no"?>
<!DOCTYPE svg PUBLIC "-//W3C//DTD SVG 1.1//EN" "http://www.w3.org/Graphics/SVG/1.1/DTD/svg11.dtd">
<svg width="100%" height="100%" viewBox="0 0 64 64" version="1.1" xmlns="http://www.w3.org/2000/svg" xmlns:xlink="http://www.w3.org/1999/xlink" xml:space="preserve" xmlns:serif="http://www.serif.com/" style="fill-rule:evenodd;clip-rule:evenodd;stroke-linejoin:round;stroke-miterlimit:2;">
    <g transform="matrix(1,0,0,1,-18.208,-18.372)">
        <path d="M20.75,42.22L26.61,44.65C25.796,48.177 25.796,51.843 26.61,55.37L20.75,57.8C19.22,58.399 18.208,59.882 18.208,61.525C18.208,63.719 20.014,65.525 22.208,65.525C22.759,65.525 23.305,65.411 23.81,65.19L29.68,62.76C31.606,65.817 34.193,68.404 37.25,70.33L34.82,76.19C34.599,76.695 34.485,77.241 34.485,77.792C34.485,79.986 36.291,81.792 38.485,81.792C40.128,81.792 41.611,80.78 42.21,79.25L44.64,73.39C48.167,74.204 51.833,74.204 55.36,73.39L57.79,79.25C58.389,80.78 59.872,81.792 61.515,81.792C63.709,81.792 65.515,79.986 65.515,77.792C65.515,77.241 65.401,76.695 65.18,76.19L62.75,70.33C65.807,68.404 68.394,65.817 70.32,62.76L76.19,65.19C76.655,65.372 77.149,65.465 77.648,65.465C79.842,65.465 81.648,63.66 81.648,61.465C81.648,59.878 80.704,58.435 79.25,57.8L73.39,55.37C74.204,51.843 74.204,48.177 73.39,44.65L79.25,42.22C80.78,41.621 81.792,40.138 81.792,38.495C81.792,36.301 79.986,34.495 77.792,34.495C77.241,34.495 76.695,34.609 76.19,34.83L70.32,37.26C68.394,34.203 65.807,31.616 62.75,29.69L65.18,23.83C65.362,23.365 65.455,22.871 65.455,22.372C65.455,20.178 63.65,18.372 61.455,18.372C59.868,18.372 58.425,19.316 57.79,20.77L55.36,26.63C51.833,25.816 48.167,25.816 44.64,26.63L42.21,20.77C41.575,19.316 40.132,18.372 38.545,18.372C36.35,18.372 34.545,20.178 34.545,22.372C34.545,22.871 34.638,23.365 34.82,23.83L37.25,29.69C34.193,31.616 31.606,34.203 29.68,37.26L23.81,34.83C23.345,34.648 22.851,34.555 22.352,34.555C20.158,34.555 18.352,36.36 18.352,38.555C18.352,40.142 19.296,41.585 20.75,42.22ZM66,50C66,58.777 58.777,66 50,66C41.223,66 34,58.777 34,50C34,41.223 41.223,34 50,34C58.777,34 66,41.223 66,50Z" style="fill-rule:nonzero;"/>
    </g>
</svg>
